<?xml version="1.0" encoding="UTF-8" standalone="yes"?><svg xmlns="http://www.w3.org/2000/svg" xmlns:xlink="http://www.w3.org/1999/xlink" height="920pt" style="width:3106px;height:920px;" version="1.1" viewBox="0 0 3106 920" width="3106pt"><defs><filter height="300%" id="f1" width="300%" x="-1" y="-1"><feGaussianBlur result="blurOut" stdDeviation="2.0"/><feColorMatrix in="blurOut" result="blurOut2" type="matrix" values="0 0 0 0 0 0 0 0 0 0 0 0 0 0 0 0 0 0 .4 0"/><feOffset dx="4.0" dy="4.0" in="blurOut2" result="blurOut3"/><feBlend in="SourceGraphic" in2="blurOut3" mode="normal"/></filter></defs><g><rect fill="#FFFFFF" filter="url(#f1)" height="703.4531" style="stroke: #383838; stroke-width: 1.0;" width="10" x="232" y="114.4883"/><rect fill="#FFFFFF" filter="url(#f1)" height="674.1426" style="stroke: #383838; stroke-width: 1.0;" width="10" x="406.5" y="143.7988"/><rect fill="#FFFFFF" filter="url(#f1)" height="644.832" style="stroke: #383838; stroke-width: 1.0;" width="10" x="528" y="173.1094"/><rect fill="#FFFFFF" filter="url(#f1)" height="615.5215" style="stroke: #383838; stroke-width: 1.0;" width="10" x="649.5" y="202.4199"/><rect fill="#FFFFFF" filter="url(#f1)" height="586.2109" style="stroke: #383838; stroke-width: 1.0;" width="10" x="756.5" y="231.7305"/><rect fill="#FFFFFF" filter="url(#f1)" height="293.1055" style="stroke: #383838; stroke-width: 1.0;" width="10" x="882" y="261.041"/><rect fill="#FFFFFF" filter="url(#f1)" height="410.3477" style="stroke: #383838; stroke-width: 1.0;" width="10" x="1028.5" y="290.3516"/><rect fill="#FFFFFF" filter="url(#f1)" height="381.0371" style="stroke: #383838; stroke-width: 1.0;" width="10" x="1178.5" y="319.6621"/><rect fill="#FFFFFF" filter="url(#f1)" height="351.7266" style="stroke: #383838; stroke-width: 1.0;" width="10" x="1295.5" y="348.9727"/><rect fill="#FFFFFF" filter="url(#f1)" height="322.416" style="stroke: #383838; stroke-width: 1.0;" width="10" x="1370.5" y="378.2832"/><rect fill="#FFFFFF" filter="url(#f1)" height="293.1055" style="stroke: #383838; stroke-width: 1.0;" width="10" x="1444.5" y="407.5938"/><rect fill="#FFFFFF" filter="url(#f1)" height="117.2422" style="stroke: #383838; stroke-width: 1.0;" width="10" x="1581.5" y="436.9043"/><rect fill="#FFFFFF" filter="url(#f1)" height="87.9316" style="stroke: #383838; stroke-width: 1.0;" width="10" x="1799" y="466.2148"/><rect fill="#FFFFFF" filter="url(#f1)" height="58.6211" style="stroke: #383838; stroke-width: 1.0;" width="10" x="1989" y="495.5254"/><rect fill="#FFFFFF" filter="url(#f1)" height="29.3105" style="stroke: #383838; stroke-width: 1.0;" width="10" x="2142.5" y="524.8359"/><rect fill="#FFFFFF" filter="url(#f1)" height="117.2422" style="stroke: #383838; stroke-width: 1.0;" width="10" x="2357.5" y="583.457"/><rect fill="#FFFFFF" filter="url(#f1)" height="87.9316" style="stroke: #383838; stroke-width: 1.0;" width="10" x="2623.5" y="612.7676"/><rect fill="#FFFFFF" filter="url(#f1)" height="58.6211" style="stroke: #383838; stroke-width: 1.0;" width="10" x="2847.5" y="642.0781"/><rect fill="#FFFFFF" filter="url(#f1)" height="29.3105" style="stroke: #383838; stroke-width: 1.0;" width="10" x="3020.5" y="671.3887"/><line style="stroke: #383838; stroke-width: 1.0; stroke-dasharray: 5.0,5.0;" x1="60" x2="60" y1="83.4883" y2="836.252"/><line style="stroke: #383838; stroke-width: 1.0; stroke-dasharray: 5.0,5.0;" x1="237" x2="237" y1="83.4883" y2="836.252"/><line style="stroke: #383838; stroke-width: 1.0; stroke-dasharray: 5.0,5.0;" x1="411" x2="411" y1="83.4883" y2="836.252"/><line style="stroke: #383838; stroke-width: 1.0; stroke-dasharray: 5.0,5.0;" x1="533" x2="533" y1="83.4883" y2="836.252"/><line style="stroke: #383838; stroke-width: 1.0; stroke-dasharray: 5.0,5.0;" x1="654" x2="654" y1="83.4883" y2="836.252"/><line style="stroke: #383838; stroke-width: 1.0; stroke-dasharray: 5.0,5.0;" x1="761" x2="761" y1="83.4883" y2="836.252"/><line style="stroke: #383838; stroke-width: 1.0; stroke-dasharray: 5.0,5.0;" x1="887" x2="887" y1="83.4883" y2="836.252"/><line style="stroke: #383838; stroke-width: 1.0; stroke-dasharray: 5.0,5.0;" x1="1033" x2="1033" y1="83.4883" y2="836.252"/><line style="stroke: #383838; stroke-width: 1.0; stroke-dasharray: 5.0,5.0;" x1="1183" x2="1183" y1="83.4883" y2="836.252"/><line style="stroke: #383838; stroke-width: 1.0; stroke-dasharray: 5.0,5.0;" x1="1300" x2="1300" y1="83.4883" y2="836.252"/><line style="stroke: #383838; stroke-width: 1.0; stroke-dasharray: 5.0,5.0;" x1="1375" x2="1375" y1="83.4883" y2="836.252"/><line style="stroke: #383838; stroke-width: 1.0; stroke-dasharray: 5.0,5.0;" x1="1449" x2="1449" y1="83.4883" y2="836.252"/><line style="stroke: #383838; stroke-width: 1.0; stroke-dasharray: 5.0,5.0;" x1="1586" x2="1586" y1="83.4883" y2="836.252"/><line style="stroke: #383838; stroke-width: 1.0; stroke-dasharray: 5.0,5.0;" x1="1804" x2="1804" y1="83.4883" y2="836.252"/><line style="stroke: #383838; stroke-width: 1.0; stroke-dasharray: 5.0,5.0;" x1="1994" x2="1994" y1="83.4883" y2="836.252"/><line style="stroke: #383838; stroke-width: 1.0; stroke-dasharray: 5.0,5.0;" x1="2147" x2="2147" y1="83.4883" y2="836.252"/><line style="stroke: #383838; stroke-width: 1.0; stroke-dasharray: 5.0,5.0;" x1="2362" x2="2362" y1="83.4883" y2="836.252"/><line style="stroke: #383838; stroke-width: 1.0; stroke-dasharray: 5.0,5.0;" x1="2628" x2="2628" y1="83.4883" y2="836.252"/><line style="stroke: #383838; stroke-width: 1.0; stroke-dasharray: 5.0,5.0;" x1="2852" x2="2852" y1="83.4883" y2="836.252"/><line style="stroke: #383838; stroke-width: 1.0; stroke-dasharray: 5.0,5.0;" x1="3025" x2="3025" y1="83.4883" y2="836.252"/><text fill="#000000" font-family="sans-serif" font-size="14" lengthAdjust="spacingAndGlyphs" textLength="104" x="5" y="80.5352">SmartCarDemo</text><ellipse cx="60" cy="10" fill="#F8F8F8" filter="url(#f1)" rx="8" ry="8" style="stroke: #383838; stroke-width: 2.0;"/><path d="M60,18 L60,45 M47,26 L73,26 M60,45 L47,60 M60,45 L73,60 " fill="#F8F8F8" filter="url(#f1)" style="stroke: #383838; stroke-width: 2.0;"/><text fill="#000000" font-family="sans-serif" font-size="14" lengthAdjust="spacingAndGlyphs" textLength="104" x="5" y="848.0469">SmartCarDemo</text><ellipse cx="60" cy="861" fill="#F8F8F8" filter="url(#f1)" rx="8" ry="8" style="stroke: #383838; stroke-width: 2.0;"/><path d="M60,869 L60,896 M47,877 L73,877 M60,896 L47,911 M60,896 L73,911 " fill="#F8F8F8" filter="url(#f1)" style="stroke: #383838; stroke-width: 2.0;"/><rect fill="#F8F8F8" filter="url(#f1)" height="30.4883" style="stroke: #383838; stroke-width: 1.5;" width="220" x="125" y="48"/><text fill="#000000" font-family="sans-serif" font-size="14" lengthAdjust="spacingAndGlyphs" textLength="206" x="132" y="68.5352">transportation:Transportation</text><rect fill="#F8F8F8" filter="url(#f1)" height="30.4883" style="stroke: #383838; stroke-width: 1.5;" width="220" x="125" y="834.5117"/><text fill="#000000" font-family="sans-serif" font-size="14" lengthAdjust="spacingAndGlyphs" textLength="206" x="132" y="855.0469">transportation:Transportation</text><rect fill="#F8F8F8" filter="url(#f1)" height="30.4883" style="stroke: #383838; stroke-width: 1.5;" width="101" x="359" y="48"/><text fill="#000000" font-family="sans-serif" font-size="14" lengthAdjust="spacingAndGlyphs" textLength="87" x="366" y="68.5352">peter:Person</text><rect fill="#F8F8F8" filter="url(#f1)" height="30.4883" style="stroke: #383838; stroke-width: 1.5;" width="101" x="359" y="834.5117"/><text fill="#000000" font-family="sans-serif" font-size="14" lengthAdjust="spacingAndGlyphs" textLength="87" x="366" y="855.0469">peter:Person</text><rect fill="#F8F8F8" filter="url(#f1)" height="30.4883" style="stroke: #383838; stroke-width: 1.5;" width="114" x="474" y="48"/><text fill="#000000" font-family="sans-serif" font-size="14" lengthAdjust="spacingAndGlyphs" textLength="100" x="481" y="68.5352">googleCar:Car</text><rect fill="#F8F8F8" filter="url(#f1)" height="30.4883" style="stroke: #383838; stroke-width: 1.5;" width="114" x="474" y="834.5117"/><text fill="#000000" font-family="sans-serif" font-size="14" lengthAdjust="spacingAndGlyphs" textLength="100" x="481" y="855.0469">googleCar:Car</text><rect fill="#F8F8F8" filter="url(#f1)" height="30.4883" style="stroke: #383838; stroke-width: 1.5;" width="101" x="602" y="48"/><text fill="#000000" font-family="sans-serif" font-size="14" lengthAdjust="spacingAndGlyphs" textLength="87" x="609" y="68.5352">harry:Person</text><rect fill="#F8F8F8" filter="url(#f1)" height="30.4883" style="stroke: #383838; stroke-width: 1.5;" width="101" x="602" y="834.5117"/><text fill="#000000" font-family="sans-serif" font-size="14" lengthAdjust="spacingAndGlyphs" textLength="87" x="609" y="855.0469">harry:Person</text><rect fill="#F8F8F8" filter="url(#f1)" height="30.4883" style="stroke: #383838; stroke-width: 1.5;" width="85" x="717" y="48"/><text fill="#000000" font-family="sans-serif" font-size="14" lengthAdjust="spacingAndGlyphs" textLength="71" x="724" y="68.5352">toyota:Car</text><rect fill="#F8F8F8" filter="url(#f1)" height="30.4883" style="stroke: #383838; stroke-width: 1.5;" width="85" x="717" y="834.5117"/><text fill="#000000" font-family="sans-serif" font-size="14" lengthAdjust="spacingAndGlyphs" textLength="71" x="724" y="855.0469">toyota:Car</text><rect fill="#F8F8F8" filter="url(#f1)" height="30.4883" style="stroke: #383838; stroke-width: 1.5;" width="138" x="816" y="48"/><text fill="#000000" font-family="sans-serif" font-size="14" lengthAdjust="spacingAndGlyphs" textLength="124" x="823" y="68.5352">Location('Munich')</text><rect fill="#F8F8F8" filter="url(#f1)" height="30.4883" style="stroke: #383838; stroke-width: 1.5;" width="138" x="816" y="834.5117"/><text fill="#000000" font-family="sans-serif" font-size="14" lengthAdjust="spacingAndGlyphs" textLength="124" x="823" y="855.0469">Location('Munich')</text><rect fill="#F8F8F8" filter="url(#f1)" height="30.4883" style="stroke: #383838; stroke-width: 1.5;" width="127" x="968" y="48"/><text fill="#000000" font-family="sans-serif" font-size="14" lengthAdjust="spacingAndGlyphs" textLength="113" x="975" y="68.5352">Location('Berlin')</text><rect fill="#F8F8F8" filter="url(#f1)" height="30.4883" style="stroke: #383838; stroke-width: 1.5;" width="127" x="968" y="834.5117"/><text fill="#000000" font-family="sans-serif" font-size="14" lengthAdjust="spacingAndGlyphs" textLength="113" x="975" y="855.0469">Location('Berlin')</text><rect fill="#F8F8F8" filter="url(#f1)" height="30.4883" style="stroke: #383838; stroke-width: 1.5;" width="145" x="1109" y="48"/><text fill="#000000" font-family="sans-serif" font-size="14" lengthAdjust="spacingAndGlyphs" textLength="131" x="1116" y="68.5352">Location('Dresden')</text><rect fill="#F8F8F8" filter="url(#f1)" height="30.4883" style="stroke: #383838; stroke-width: 1.5;" width="145" x="1109" y="834.5117"/><text fill="#000000" font-family="sans-serif" font-size="14" lengthAdjust="spacingAndGlyphs" textLength="131" x="1116" y="855.0469">Location('Dresden')</text><rect fill="#F8F8F8" filter="url(#f1)" height="30.4883" style="stroke: #383838; stroke-width: 1.5;" width="61" x="1268" y="48"/><text fill="#000000" font-family="sans-serif" font-size="14" lengthAdjust="spacingAndGlyphs" textLength="47" x="1275" y="68.5352">Source</text><rect fill="#F8F8F8" filter="url(#f1)" height="30.4883" style="stroke: #383838; stroke-width: 1.5;" width="61" x="1268" y="834.5117"/><text fill="#000000" font-family="sans-serif" font-size="14" lengthAdjust="spacingAndGlyphs" textLength="47" x="1275" y="855.0469">Source</text><rect fill="#F8F8F8" filter="url(#f1)" height="30.4883" style="stroke: #383838; stroke-width: 1.5;" width="61" x="1343" y="48"/><text fill="#000000" font-family="sans-serif" font-size="14" lengthAdjust="spacingAndGlyphs" textLength="47" x="1350" y="68.5352">Source</text><rect fill="#F8F8F8" filter="url(#f1)" height="30.4883" style="stroke: #383838; stroke-width: 1.5;" width="61" x="1343" y="834.5117"/><text fill="#000000" font-family="sans-serif" font-size="14" lengthAdjust="spacingAndGlyphs" textLength="47" x="1350" y="855.0469">Source</text><rect fill="#F8F8F8" filter="url(#f1)" height="30.4883" style="stroke: #383838; stroke-width: 1.5;" width="59" x="1418" y="48"/><text fill="#000000" font-family="sans-serif" font-size="14" lengthAdjust="spacingAndGlyphs" textLength="45" x="1425" y="68.5352">Target</text><rect fill="#F8F8F8" filter="url(#f1)" height="30.4883" style="stroke: #383838; stroke-width: 1.5;" width="59" x="1418" y="834.5117"/><text fill="#000000" font-family="sans-serif" font-size="14" lengthAdjust="spacingAndGlyphs" textLength="45" x="1425" y="855.0469">Target</text><rect fill="#F8F8F8" filter="url(#f1)" height="30.4883" style="stroke: #383838; stroke-width: 1.5;" width="187" x="1491" y="48"/><text fill="#000000" font-family="sans-serif" font-size="14" lengthAdjust="spacingAndGlyphs" textLength="173" x="1498" y="68.5352">ManualTransport.Driver()</text><rect fill="#F8F8F8" filter="url(#f1)" height="30.4883" style="stroke: #383838; stroke-width: 1.5;" width="187" x="1491" y="834.5117"/><text fill="#000000" font-family="sans-serif" font-size="14" lengthAdjust="spacingAndGlyphs" textLength="173" x="1498" y="855.0469">ManualTransport.Driver()</text><rect fill="#F8F8F8" filter="url(#f1)" height="30.4883" style="stroke: #383838; stroke-width: 1.5;" width="220" x="1692" y="48"/><text fill="#000000" font-family="sans-serif" font-size="14" lengthAdjust="spacingAndGlyphs" textLength="206" x="1699" y="68.5352">ManualTransport.NormalCar()</text><rect fill="#F8F8F8" filter="url(#f1)" height="30.4883" style="stroke: #383838; stroke-width: 1.5;" width="220" x="1692" y="834.5117"/><text fill="#000000" font-family="sans-serif" font-size="14" lengthAdjust="spacingAndGlyphs" textLength="206" x="1699" y="855.0469">ManualTransport.NormalCar()</text><rect fill="#F8F8F8" filter="url(#f1)" height="30.4883" style="stroke: #383838; stroke-width: 1.5;" width="132" x="1926" y="48"/><text fill="#000000" font-family="sans-serif" font-size="14" lengthAdjust="spacingAndGlyphs" textLength="118" x="1933" y="68.5352">ManualTransport</text><rect fill="#F8F8F8" filter="url(#f1)" height="30.4883" style="stroke: #383838; stroke-width: 1.5;" width="132" x="1926" y="834.5117"/><text fill="#000000" font-family="sans-serif" font-size="14" lengthAdjust="spacingAndGlyphs" textLength="118" x="1933" y="855.0469">ManualTransport</text><rect fill="#F8F8F8" filter="url(#f1)" height="30.4883" style="stroke: #383838; stroke-width: 1.5;" width="147" x="2072" y="48"/><text fill="#000000" font-family="sans-serif" font-size="14" lengthAdjust="spacingAndGlyphs" textLength="133" x="2079" y="68.5352">TransportationRole</text><rect fill="#F8F8F8" filter="url(#f1)" height="30.4883" style="stroke: #383838; stroke-width: 1.5;" width="147" x="2072" y="834.5117"/><text fill="#000000" font-family="sans-serif" font-size="14" lengthAdjust="spacingAndGlyphs" textLength="133" x="2079" y="855.0469">TransportationRole</text><rect fill="#F8F8F8" filter="url(#f1)" height="30.4883" style="stroke: #383838; stroke-width: 1.5;" width="255" x="2233" y="48"/><text fill="#000000" font-family="sans-serif" font-size="14" lengthAdjust="spacingAndGlyphs" textLength="241" x="2240" y="68.5352">AutonomousTransport.Passenger()</text><rect fill="#F8F8F8" filter="url(#f1)" height="30.4883" style="stroke: #383838; stroke-width: 1.5;" width="255" x="2233" y="834.5117"/><text fill="#000000" font-family="sans-serif" font-size="14" lengthAdjust="spacingAndGlyphs" textLength="241" x="2240" y="855.0469">AutonomousTransport.Passenger()</text><rect fill="#F8F8F8" filter="url(#f1)" height="30.4883" style="stroke: #383838; stroke-width: 1.5;" width="249" x="2502" y="48"/><text fill="#000000" font-family="sans-serif" font-size="14" lengthAdjust="spacingAndGlyphs" textLength="235" x="2509" y="68.5352">AutonomousTransport.SmartCar()</text><rect fill="#F8F8F8" filter="url(#f1)" height="30.4883" style="stroke: #383838; stroke-width: 1.5;" width="249" x="2502" y="834.5117"/><text fill="#000000" font-family="sans-serif" font-size="14" lengthAdjust="spacingAndGlyphs" textLength="235" x="2509" y="855.0469">AutonomousTransport.SmartCar()</text><rect fill="#F8F8F8" filter="url(#f1)" height="30.4883" style="stroke: #383838; stroke-width: 1.5;" width="171" x="2765" y="48"/><text fill="#000000" font-family="sans-serif" font-size="14" lengthAdjust="spacingAndGlyphs" textLength="157" x="2772" y="68.5352">AutonomousTransport</text><rect fill="#F8F8F8" filter="url(#f1)" height="30.4883" style="stroke: #383838; stroke-width: 1.5;" width="171" x="2765" y="834.5117"/><text fill="#000000" font-family="sans-serif" font-size="14" lengthAdjust="spacingAndGlyphs" textLength="157" x="2772" y="855.0469">AutonomousTransport</text><rect fill="#F8F8F8" filter="url(#f1)" height="30.4883" style="stroke: #383838; stroke-width: 1.5;" width="147" x="2950" y="48"/><text fill="#000000" font-family="sans-serif" font-size="14" lengthAdjust="spacingAndGlyphs" textLength="133" x="2957" y="68.5352">TransportationRole</text><rect fill="#F8F8F8" filter="url(#f1)" height="30.4883" style="stroke: #383838; stroke-width: 1.5;" width="147" x="2950" y="834.5117"/><text fill="#000000" font-family="sans-serif" font-size="14" lengthAdjust="spacingAndGlyphs" textLength="133" x="2957" y="855.0469">TransportationRole</text><rect fill="#FFFFFF" filter="url(#f1)" height="703.4531" style="stroke: #383838; stroke-width: 1.0;" width="10" x="232" y="114.4883"/><rect fill="#FFFFFF" filter="url(#f1)" height="674.1426" style="stroke: #383838; stroke-width: 1.0;" width="10" x="406.5" y="143.7988"/><rect fill="#FFFFFF" filter="url(#f1)" height="644.832" style="stroke: #383838; stroke-width: 1.0;" width="10" x="528" y="173.1094"/><rect fill="#FFFFFF" filter="url(#f1)" height="615.5215" style="stroke: #383838; stroke-width: 1.0;" width="10" x="649.5" y="202.4199"/><rect fill="#FFFFFF" filter="url(#f1)" height="586.2109" style="stroke: #383838; stroke-width: 1.0;" width="10" x="756.5" y="231.7305"/><rect fill="#FFFFFF" filter="url(#f1)" height="293.1055" style="stroke: #383838; stroke-width: 1.0;" width="10" x="882" y="261.041"/><rect fill="#FFFFFF" filter="url(#f1)" height="410.3477" style="stroke: #383838; stroke-width: 1.0;" width="10" x="1028.5" y="290.3516"/><rect fill="#FFFFFF" filter="url(#f1)" height="381.0371" style="stroke: #383838; stroke-width: 1.0;" width="10" x="1178.5" y="319.6621"/><rect fill="#FFFFFF" filter="url(#f1)" height="351.7266" style="stroke: #383838; stroke-width: 1.0;" width="10" x="1295.5" y="348.9727"/><rect fill="#FFFFFF" filter="url(#f1)" height="322.416" style="stroke: #383838; stroke-width: 1.0;" width="10" x="1370.5" y="378.2832"/><rect fill="#FFFFFF" filter="url(#f1)" height="293.1055" style="stroke: #383838; stroke-width: 1.0;" width="10" x="1444.5" y="407.5938"/><rect fill="#FFFFFF" filter="url(#f1)" height="117.2422" style="stroke: #383838; stroke-width: 1.0;" width="10" x="1581.5" y="436.9043"/><rect fill="#FFFFFF" filter="url(#f1)" height="87.9316" style="stroke: #383838; stroke-width: 1.0;" width="10" x="1799" y="466.2148"/><rect fill="#FFFFFF" filter="url(#f1)" height="58.6211" style="stroke: #383838; stroke-width: 1.0;" width="10" x="1989" y="495.5254"/><rect fill="#FFFFFF" filter="url(#f1)" height="29.3105" style="stroke: #383838; stroke-width: 1.0;" width="10" x="2142.5" y="524.8359"/><rect fill="#FFFFFF" filter="url(#f1)" height="117.2422" style="stroke: #383838; stroke-width: 1.0;" width="10" x="2357.5" y="583.457"/><rect fill="#FFFFFF" filter="url(#f1)" height="87.9316" style="stroke: #383838; stroke-width: 1.0;" width="10" x="2623.5" y="612.7676"/><rect fill="#FFFFFF" filter="url(#f1)" height="58.6211" style="stroke: #383838; stroke-width: 1.0;" width="10" x="2847.5" y="642.0781"/><rect fill="#FFFFFF" filter="url(#f1)" height="29.3105" style="stroke: #383838; stroke-width: 1.0;" width="10" x="3020.5" y="671.3887"/><polygon fill="#383838" points="220,110.4883,230,114.4883,220,118.4883,224,114.4883" style="stroke: #383838; stroke-width: 1.0;"/><line style="stroke: #383838; stroke-width: 1.0;" x1="60" x2="226" y1="114.4883" y2="114.4883"/><text fill="#000000" font-family="sans-serif" font-size="13" lengthAdjust="spacingAndGlyphs" textLength="78" x="67" y="110.0566">&lt;&lt;create&gt;&gt;</text><polygon fill="#383838" points="394.5,139.7988,404.5,143.7988,394.5,147.7988,398.5,143.7988" style="stroke: #383838; stroke-width: 1.0;"/><line style="stroke: #383838; stroke-width: 1.0;" x1="242" x2="400.5" y1="143.7988" y2="143.7988"/><text fill="#000000" font-family="sans-serif" font-size="13" lengthAdjust="spacingAndGlyphs" textLength="78" x="249" y="139.3672">&lt;&lt;create&gt;&gt;</text><polygon fill="#383838" points="516,169.1094,526,173.1094,516,177.1094,520,173.1094" style="stroke: #383838; stroke-width: 1.0;"/><line style="stroke: #383838; stroke-width: 1.0;" x1="242" x2="522" y1="173.1094" y2="173.1094"/><text fill="#000000" font-family="sans-serif" font-size="13" lengthAdjust="spacingAndGlyphs" textLength="78" x="249" y="168.6777">&lt;&lt;create&gt;&gt;</text><polygon fill="#383838" points="637.5,198.4199,647.5,202.4199,637.5,206.4199,641.5,202.4199" style="stroke: #383838; stroke-width: 1.0;"/><line style="stroke: #383838; stroke-width: 1.0;" x1="242" x2="643.5" y1="202.4199" y2="202.4199"/><text fill="#000000" font-family="sans-serif" font-size="13" lengthAdjust="spacingAndGlyphs" textLength="78" x="249" y="197.9883">&lt;&lt;create&gt;&gt;</text><polygon fill="#383838" points="744.5,227.7305,754.5,231.7305,744.5,235.7305,748.5,231.7305" style="stroke: #383838; stroke-width: 1.0;"/><line style="stroke: #383838; stroke-width: 1.0;" x1="242" x2="750.5" y1="231.7305" y2="231.7305"/><text fill="#000000" font-family="sans-serif" font-size="13" lengthAdjust="spacingAndGlyphs" textLength="78" x="249" y="227.2988">&lt;&lt;create&gt;&gt;</text><polygon fill="#383838" points="870,257.041,880,261.041,870,265.041,874,261.041" style="stroke: #383838; stroke-width: 1.0;"/><line style="stroke: #383838; stroke-width: 1.0;" x1="242" x2="876" y1="261.041" y2="261.041"/><text fill="#000000" font-family="sans-serif" font-size="13" lengthAdjust="spacingAndGlyphs" textLength="78" x="249" y="256.6094">&lt;&lt;create&gt;&gt;</text><polygon fill="#383838" points="1016.5,286.3516,1026.5,290.3516,1016.5,294.3516,1020.5,290.3516" style="stroke: #383838; stroke-width: 1.0;"/><line style="stroke: #383838; stroke-width: 1.0;" x1="242" x2="1022.5" y1="290.3516" y2="290.3516"/><text fill="#000000" font-family="sans-serif" font-size="13" lengthAdjust="spacingAndGlyphs" textLength="78" x="249" y="285.9199">&lt;&lt;create&gt;&gt;</text><polygon fill="#383838" points="1166.5,315.6621,1176.5,319.6621,1166.5,323.6621,1170.5,319.6621" style="stroke: #383838; stroke-width: 1.0;"/><line style="stroke: #383838; stroke-width: 1.0;" x1="242" x2="1172.5" y1="319.6621" y2="319.6621"/><text fill="#000000" font-family="sans-serif" font-size="13" lengthAdjust="spacingAndGlyphs" textLength="78" x="249" y="315.2305">&lt;&lt;create&gt;&gt;</text><polygon fill="#383838" points="1283.5,344.9727,1293.5,348.9727,1283.5,352.9727,1287.5,348.9727" style="stroke: #383838; stroke-width: 1.0;"/><line style="stroke: #383838; stroke-width: 1.0;" x1="892" x2="1289.5" y1="348.9727" y2="348.9727"/><text fill="#000000" font-family="sans-serif" font-size="13" lengthAdjust="spacingAndGlyphs" textLength="26" x="899" y="344.541">play</text><polygon fill="#383838" points="1358.5,374.2832,1368.5,378.2832,1358.5,382.2832,1362.5,378.2832" style="stroke: #383838; stroke-width: 1.0;"/><line style="stroke: #383838; stroke-width: 1.0;" x1="1038.5" x2="1364.5" y1="378.2832" y2="378.2832"/><text fill="#000000" font-family="sans-serif" font-size="13" lengthAdjust="spacingAndGlyphs" textLength="26" x="1045.5" y="373.8516">play</text><polygon fill="#383838" points="1432.5,403.5938,1442.5,407.5938,1432.5,411.5938,1436.5,407.5938" style="stroke: #383838; stroke-width: 1.0;"/><line style="stroke: #383838; stroke-width: 1.0;" x1="1188.5" x2="1438.5" y1="407.5938" y2="407.5938"/><text fill="#000000" font-family="sans-serif" font-size="13" lengthAdjust="spacingAndGlyphs" textLength="26" x="1195.5" y="403.1621">play</text><polygon fill="#383838" points="1569.5,432.9043,1579.5,436.9043,1569.5,440.9043,1573.5,436.9043" style="stroke: #383838; stroke-width: 1.0;"/><line style="stroke: #383838; stroke-width: 1.0;" x1="659.5" x2="1575.5" y1="436.9043" y2="436.9043"/><text fill="#000000" font-family="sans-serif" font-size="13" lengthAdjust="spacingAndGlyphs" textLength="26" x="666.5" y="432.4727">play</text><polygon fill="#383838" points="1787,462.2148,1797,466.2148,1787,470.2148,1791,466.2148" style="stroke: #383838; stroke-width: 1.0;"/><line style="stroke: #383838; stroke-width: 1.0;" x1="766.5" x2="1793" y1="466.2148" y2="466.2148"/><text fill="#000000" font-family="sans-serif" font-size="13" lengthAdjust="spacingAndGlyphs" textLength="26" x="773.5" y="461.7832">play</text><polygon fill="#383838" points="253,491.5254,243,495.5254,253,499.5254,249,495.5254" style="stroke: #383838; stroke-width: 1.0;"/><line style="stroke: #383838; stroke-width: 1.0;" x1="247" x2="1988" y1="495.5254" y2="495.5254"/><text fill="#000000" font-family="sans-serif" font-size="13" lengthAdjust="spacingAndGlyphs" textLength="40" x="259" y="491.0938">partOf</text><polygon fill="#383838" points="2130.5,520.8359,2140.5,524.8359,2130.5,528.8359,2134.5,524.8359" style="stroke: #383838; stroke-width: 1.0;"/><line style="stroke: #383838; stroke-width: 1.0;" x1="1999" x2="2136.5" y1="524.8359" y2="524.8359"/><text fill="#000000" font-family="sans-serif" font-size="13" lengthAdjust="spacingAndGlyphs" textLength="26" x="2006" y="520.4043">play</text><polygon fill="#383838" points="2135.5,550.1465,2145.5,554.1465,2135.5,558.1465,2139.5,554.1465" style="stroke: #383838; stroke-width: 1.0;"/><line style="stroke: #383838; stroke-width: 1.0;" x1="242" x2="2141.5" y1="554.1465" y2="554.1465"/><text fill="#000000" font-family="sans-serif" font-size="13" lengthAdjust="spacingAndGlyphs" textLength="43" x="249" y="549.7148">travel()</text><polygon fill="#383838" points="2345.5,579.457,2355.5,583.457,2345.5,587.457,2349.5,583.457" style="stroke: #383838; stroke-width: 1.0;"/><line style="stroke: #383838; stroke-width: 1.0;" x1="416.5" x2="2351.5" y1="583.457" y2="583.457"/><text fill="#000000" font-family="sans-serif" font-size="13" lengthAdjust="spacingAndGlyphs" textLength="26" x="423.5" y="579.0254">play</text><polygon fill="#383838" points="2611.5,608.7676,2621.5,612.7676,2611.5,616.7676,2615.5,612.7676" style="stroke: #383838; stroke-width: 1.0;"/><line style="stroke: #383838; stroke-width: 1.0;" x1="538" x2="2617.5" y1="612.7676" y2="612.7676"/><text fill="#000000" font-family="sans-serif" font-size="13" lengthAdjust="spacingAndGlyphs" textLength="26" x="545" y="608.3359">play</text><polygon fill="#383838" points="253,638.0781,243,642.0781,253,646.0781,249,642.0781" style="stroke: #383838; stroke-width: 1.0;"/><line style="stroke: #383838; stroke-width: 1.0;" x1="247" x2="2846.5" y1="642.0781" y2="642.0781"/><text fill="#000000" font-family="sans-serif" font-size="13" lengthAdjust="spacingAndGlyphs" textLength="40" x="259" y="637.6465">partOf</text><polygon fill="#383838" points="3008.5,667.3887,3018.5,671.3887,3008.5,675.3887,3012.5,671.3887" style="stroke: #383838; stroke-width: 1.0;"/><line style="stroke: #383838; stroke-width: 1.0;" x1="2857.5" x2="3014.5" y1="671.3887" y2="671.3887"/><text fill="#000000" font-family="sans-serif" font-size="13" lengthAdjust="spacingAndGlyphs" textLength="26" x="2864.5" y="666.957">play</text><polygon fill="#383838" points="3013.5,696.6992,3023.5,700.6992,3013.5,704.6992,3017.5,700.6992" style="stroke: #383838; stroke-width: 1.0;"/><line style="stroke: #383838; stroke-width: 1.0;" x1="242" x2="3019.5" y1="700.6992" y2="700.6992"/><text fill="#000000" font-family="sans-serif" font-size="13" lengthAdjust="spacingAndGlyphs" textLength="43" x="249" y="696.2676">travel()</text><polygon fill="#383838" points="516,726.0098,526,730.0098,516,734.0098,520,730.0098" style="stroke: #383838; stroke-width: 1.0;"/><line style="stroke: #383838; stroke-width: 1.0;" x1="242" x2="522" y1="730.0098" y2="730.0098"/><text fill="#000000" font-family="sans-serif" font-size="13" lengthAdjust="spacingAndGlyphs" textLength="39" x="249" y="725.5781">drive()</text><polygon fill="#383838" points="744.5,755.3203,754.5,759.3203,744.5,763.3203,748.5,759.3203" style="stroke: #383838; stroke-width: 1.0;"/><line style="stroke: #383838; stroke-width: 1.0;" x1="242" x2="750.5" y1="759.3203" y2="759.3203"/><text fill="#000000" font-family="sans-serif" font-size="13" lengthAdjust="spacingAndGlyphs" textLength="39" x="249" y="754.8887">drive()</text><polygon fill="#383838" points="394.5,784.6309,404.5,788.6309,394.5,792.6309,398.5,788.6309" style="stroke: #383838; stroke-width: 1.0;"/><line style="stroke: #383838; stroke-width: 1.0;" x1="242" x2="400.5" y1="788.6309" y2="788.6309"/><text fill="#000000" font-family="sans-serif" font-size="13" lengthAdjust="spacingAndGlyphs" textLength="43" x="249" y="784.1992">break()</text><polygon fill="#383838" points="642.5,813.9414,652.5,817.9414,642.5,821.9414,646.5,817.9414" style="stroke: #383838; stroke-width: 1.0;"/><line style="stroke: #383838; stroke-width: 1.0;" x1="237" x2="648.5" y1="817.9414" y2="817.9414"/><text fill="#000000" font-family="sans-serif" font-size="13" lengthAdjust="spacingAndGlyphs" textLength="43" x="244" y="813.5098">break()</text></g></svg>